<svg width="16" height="16" viewBox="0 0 16 16" fill="none" xmlns="http://www.w3.org/2000/svg">
<path d="M14.6466 12.22C14.6466 12.46 14.5933 12.7067 14.48 12.9467C14.3666 13.1867 14.22 13.4134 14.0266 13.6267C13.7 13.9867 13.34 14.2467 12.9333 14.4134C12.5333 14.58 12.1 14.6667 11.6333 14.6667C10.9533 14.6667 10.2266 14.5067 9.45998 14.18C8.69331 13.8534 7.92665 13.4134 7.16665 12.86C6.39998 12.3 5.67331 11.68 4.97998 10.9934C4.29331 10.3 3.67331 9.57337 3.11998 8.81337C2.57331 8.05337 2.13331 7.29337 1.81331 6.54004C1.49331 5.78004 1.33331 5.05337 1.33331 4.36004C1.33331 3.90671 1.41331 3.47337 1.57331 3.07337C1.73331 2.66671 1.98665 2.29337 2.33998 1.96004C2.76665 1.54004 3.23331 1.33337 3.72665 1.33337C3.91331 1.33337 4.09998 1.37337 4.26665 1.45337C4.43998 1.53337 4.59331 1.65337 4.71331 1.82671L6.25998 4.00671C6.37998 4.17337 6.46665 4.32671 6.52665 4.47337C6.58665 4.61337 6.61998 4.75337 6.61998 4.88004C6.61998 5.04004 6.57331 5.20004 6.47998 5.35337C6.39331 5.50671 6.26665 5.66671 6.10665 5.82671L5.59998 6.35337C5.52665 6.42671 5.49331 6.51337 5.49331 6.62004C5.49331 6.67337 5.49998 6.72004 5.51331 6.77337C5.53331 6.82671 5.55331 6.86671 5.56665 6.90671C5.68665 7.12671 5.89331 7.41337 6.18665 7.76004C6.48665 8.10671 6.80665 8.46004 7.15331 8.81337C7.51331 9.16671 7.85998 9.49337 8.21331 9.79337C8.55998 10.0867 8.84665 10.2867 9.07331 10.4067C9.10665 10.42 9.14665 10.44 9.19331 10.46C9.24665 10.48 9.29998 10.4867 9.35998 10.4867C9.47331 10.4867 9.55998 10.4467 9.63331 10.3734L10.14 9.87337C10.3066 9.70671 10.4666 9.58004 10.62 9.50004C10.7733 9.40671 10.9266 9.36004 11.0933 9.36004C11.22 9.36004 11.3533 9.38671 11.5 9.44671C11.6466 9.50671 11.8 9.59337 11.9666 9.70671L14.1733 11.2734C14.3466 11.3934 14.4666 11.5334 14.54 11.7C14.6066 11.8667 14.6466 12.0334 14.6466 12.22Z" stroke="#171725" stroke-width="1.3" stroke-miterlimit="10"/>
</svg>
